<?xml version="1.0" encoding="utf-8"?>
<!-- Generator: Adobe Illustrator 15.1.0, SVG Export Plug-In . SVG Version: 6.00 Build 0)  -->
<!DOCTYPE svg PUBLIC "-//W3C//DTD SVG 1.1//EN" "http://www.w3.org/Graphics/SVG/1.1/DTD/svg11.dtd">
<svg version="1.1" xmlns="http://www.w3.org/2000/svg" xmlns:xlink="http://www.w3.org/1999/xlink" x="0px" y="0px"
	 width="595.281px" height="841.891px" viewBox="0 0 595.281 841.891" enable-background="new 0 0 595.281 841.891"
	 xml:space="preserve">
<g id="圖層_3" display="none">
	<rect x="0" y="305.445" display="inline" fill="none" stroke="#000000" stroke-miterlimit="10" width="595.281" height="230"/>
</g>
<g id="圖層_2">
	<g>
		<path fill-rule="evenodd" clip-rule="evenodd" d="M247.077,335.26c2.875,2.686,4.471,6.446,6.485,9.728
			c6.011,9.793,12.597,19.839,18.529,30.11c6.169-12.824,11.238-26.748,17.14-39.838c6.176,0,12.353,0,18.529,0
			c-2.375,2.467-4.652,3.789-5.095,6.948c-1.036,7.392,0,17.178,0,26.868c0,8.781,0,17.887,0,26.867
			c0,20.17-1.183,37.333,0.463,53.272c1.006,9.742,6.911,19.972,18.993,16.213c7.807-2.43,6.341-13.952,13.896-14.824
			c3.515-0.404,6.206,0.73,6.948,3.707c2.351,9.422-12.741,13.273-21.309,13.896c-19.399,1.412-31.137-5.449-32.426-23.162
			c-1.167-16.036,0-34.411,0-52.345c0-17.802,0-35.577,0-51.882c-7.29,16.49-13.814,33.745-21.309,50.029
			c-2.473,0.34-3.691-2.662-4.632-4.169c-7.511-12.031-15.011-25.638-23.162-37.521c2.456,15.626-6.207,46.403,7.412,49.565
			c-4.789,1.079-11.579,0.156-17.14,0.463c2.479-2.371,5.687-2.805,6.949-6.485c1.69-4.928,0.463-15.522,0.463-24.088
			c0-4.614,0-8.721,0-12.507c0-3.503,0.819-8.142,0-12.044c-2.374-11.308-18.514-7.518-17.603,5.096
			c0.195,2.705,1.24,5.401,4.169,6.022c3.364,0.713,3.69-2.576,6.485-2.316c3.377,0.314,4.194,3.392,3.706,6.948
			c-0.899,6.558-12.18,7.326-16.677,4.169c-8.647-6.07-5.274-21.695,2.78-26.404C227.156,333.785,235.118,335.819,247.077,335.26z"
			/>
		<path fill-rule="evenodd" clip-rule="evenodd" d="M398.552,375.098c0.841,12.534-4.227,21.489-15.285,23.162
			c-9.163,1.385-19.027-1.457-23.162-8.338c-4.439-7.388-4.373-20.792,2.779-27.794c9.708-9.502,33.015-5.391,35.205,8.802
			c5.715-3.671,7.167-11.965,3.707-17.14c-2.629-3.931-7.529-5.684-12.045-6.022c-2.424-0.182-5.779,1.16-8.338,0
			c-5.549-2.516-2.721-10.5,2.316-11.581c1.885-0.405,4.3-0.176,6.021,0c15.209,1.555,25.808,20.676,16.213,33.353
			C404.164,371.919,401.353,373.2,398.552,375.098z M378.172,396.406c7.307-0.074,6.531-11.75,7.411-19.456
			c-7.498-1.041-12.554-10.201-9.265-17.603C368.193,362.942,368.57,396.503,378.172,396.406z M385.119,373.245
			c-0.336-5.223-0.326-10.79-3.705-12.97C376.404,363.263,380.699,372.489,385.119,373.245z"/>
		<path fill-rule="evenodd" clip-rule="evenodd" d="M327.216,357.495c10.162-1.537,19.231,2.533,22.698,9.265
			c2.779,5.398,3.34,13.206,0.927,19.919c-5.402,15.033-31.998,15.383-38.448,1.39c-3.495-7.583-1.785-18.493,1.39-23.162
			C316.403,361.052,320.256,358.547,327.216,357.495z M331.385,396.406c9.846-0.119,10.436-38.505-0.463-37.059
			C320.764,360.696,321.769,396.523,331.385,396.406z"/>
		<path fill-rule="evenodd" clip-rule="evenodd" d="M428.2,357.495c1.999,0.317,0.427,4.206,0.927,6.022
			c5.852-7.827,22.02-9.756,25.478,0c2.626,7.408-2.202,21.577,0.927,29.647c0.742,1.914,3.26,2.863,4.17,4.632
			c-7.258,0-14.516,0-21.772,0c0.538-1.587,4.054-2.906,4.632-6.485c1.219-7.543,0.332-24.526-1.39-26.867
			c-3.205-4.359-10.056-0.848-12.044,3.706c1.147,7.085-1.533,17.792,0,24.088c0.774,3.182,3.603,3.565,4.17,5.559
			c-7.258,0-14.516,0-21.773,0c1.379-1.865,3.707-2.778,4.633-5.096c-1.141-7.401,1.729-18.766-0.463-25.014
			c-0.883-2.516-2.31-2.733-3.705-4.632c5.674-1.583,11.486-3.028,15.749-6.022C428.131,356.946,428.174,357.212,428.2,357.495z"/>
		<path fill-rule="evenodd" clip-rule="evenodd" fill="#FFFFFF" d="M385.119,373.245c-4.42-0.755-8.715-9.982-3.705-12.97"/>
		<path fill-rule="evenodd" clip-rule="evenodd" d="M485.641,362.127c1.737,0.733,0.968,3.973,4.169,3.243
			c-0.932,1.54-3.839,1.103-3.242,4.169c-1.477-1.149-1.641-3.61-4.17-3.706C483.883,365.001,486.105,364.907,485.641,362.127z"/>
		<path fill-rule="evenodd" clip-rule="evenodd" d="M498.611,364.443c1.295,7.868,2.383,14.151,13.434,12.971
			c-1.201,1.663-4.289,0.89-6.484,1.389c-5.285,1.203-5.936,6.222-6.485,12.971c-0.854-8.182-1.316-12.351-9.729-13.434
			c-0.726-0.094-3.053,0.816-3.242-0.926C495.354,378.171,499.386,373.71,498.611,364.443z"/>
		<path fill-rule="evenodd" clip-rule="evenodd" d="M481.935,382.509c1.539,0.931,1.103,3.838,4.169,3.243
			c-1.521,1.104-3.633,1.617-3.706,4.169c-0.713-1.758-1.407-3.534-3.705-3.706C480.086,385.292,482.233,385.124,481.935,382.509z"
			/>
		<path fill-rule="evenodd" clip-rule="evenodd" d="M351.304,400.575c0.998,7.802,4.971,12.631,13.434,12.971
			c-7.701,0.946-12.9,4.394-12.971,12.971c-1.632-7.016-4.42-12.875-13.434-12.507C345.709,412.36,350.906,409.736,351.304,400.575z
			"/>
		<path fill-rule="evenodd" clip-rule="evenodd" d="M429.59,404.281c2.432,0.686,1.347,4.392,1.391,6.485
			c0.171,8.219-0.375,17.434-0.464,23.161c4.913-5.576,16.573-9.469,23.161-3.705c7.29,6.375,0.334,24.221,3.706,33.352
			c0.879,2.379,2.812,2.697,4.169,4.633c-7.103,0-14.205,0-21.309,0c-1.842-1.074,3.59-2.47,3.706-4.633
			c-1.763-9.547,4.204-29.322-4.632-30.572c-3.291-0.467-7.332,2.717-8.338,5.559c-0.817,2.305,0,7.459,0,11.58
			c0,4.963-0.744,10.215,0,12.971c0.813,3.019,3.282,2.99,4.168,5.096c-7.257,0-14.514,0-21.771,0
			c0.166-1.385,4.21-2.637,4.633-5.559c0.754-5.211,0-13.889,0-23.625c0-9.341,1.041-19.058-0.463-22.698
			c-0.89-2.15-3.526-2.761-4.17-4.169c0.572-1.328,2.459-1.409,3.706-1.853c3.535-1.26,9.229-3.082,11.581-6.022
			C428.972,404.281,429.281,404.281,429.59,404.281z"/>
		<path fill-rule="evenodd" clip-rule="evenodd" d="M480.082,415.398c1.724,0.661,0.887,3.57,0.928,5.559
			c0.047,2.301-0.037,4.619,0,6.486c1.03,1.594,6.193-0.944,6.484,1.389c0.189,2.814-4.484,0.767-6.484,1.391
			c0,4.951,0,10.93,0,16.676c0,5.429-1.256,11.793,1.852,14.824c2.855,0.983,3.666-2.488,5.096-1.391
			c-0.965,8.866-17.895,11.184-19.918,2.779c-2.034-8.442,1.522-23.244,0-32.426c-0.649-1.359-4.447,0.432-5.096-0.927
			c-0.559-2.464,2.516-2.5,3.705-3.242c4.324-2.698,10.025-6.591,12.971-11.118C479.773,415.398,479.927,415.398,480.082,415.398z"
			/>
		<path fill-rule="evenodd" clip-rule="evenodd" d="M374.928,458.942c-4.067-3.815-6.759-9.747-6.021-16.214
			c1.359-11.924,15.339-18.297,28.72-13.896c-0.344-8.819,10.735-16.917,16.213-10.654c2.337,2.671,1.82,7.976-1.389,9.265
			c-3.221,1.293-9.543-3.504-11.582,2.315c9.496,3.688,12.317,19.142,5.559,26.868c-3.926,4.488-11.601,7.018-20.845,6.021
			c-3.326-0.358-6.599-3.048-9.728-1.39c-0.505,3.004,2.847,3.406,4.632,3.706c9.437,1.584,25.687-2.37,29.185,6.484
			c4.426,11.209-6.902,17.576-17.141,18.529c-9.34,0.87-24.053-0.318-24.088-8.338c-0.021-5.056,5.897-7.463,10.654-4.633
			c2.131,3.525,1.639,6.598,4.633,8.802c4.785,3.524,20.958,2.206,20.383-4.632c-0.383-4.538-7.74-3.377-14.361-3.706
			c-8.98-0.447-23.5-1.145-20.845-12.971C369.483,461.932,372.293,459.785,374.928,458.942z M389.752,460.795
			c9.914-0.367,9.943-35.217-2.316-30.572C379.844,433.099,380.331,461.145,389.752,460.795z"/>
		<path fill-rule="evenodd" clip-rule="evenodd" d="M235.032,422.811c0.272,1.734,2.153,1.861,2.78,3.242
			c-1.842-0.143-2.507,0.891-2.316,2.779c-1.504-0.504-0.676-3.338-3.243-2.779C232.755,424.547,234.936,424.721,235.032,422.811z"
			/>
		<path fill-rule="evenodd" clip-rule="evenodd" d="M245.687,426.979c1.197,4.671,3.22,8.516,8.802,8.802
			c-4.876,0.837-8.14,3.286-8.338,8.801c-1.27-2.799-1.25-5.832-3.706-7.412c-1.633-1.049-3.852,0.195-5.096-1.852
			C243.175,435.585,245.422,432.273,245.687,426.979z"/>
		<path fill-rule="evenodd" clip-rule="evenodd" d="M365.664,468.207c-7.258,0-14.515,0-21.771,0
			c0.344-1.893,3.096-1.667,4.169-4.17c0.835-1.946,1.451-20.268,0-24.087c-1.149-3.022-4.269-2.896-4.169-5.096
			c5.881-1.839,11.592-3.849,15.75-7.411c0.748-0.131,0.797,0.438,1.39,0.463c1.925,10.47-2.987,27.938,0.927,36.131
			C362.926,466.063,364.603,466.494,365.664,468.207z"/>
		<path fill-rule="evenodd" clip-rule="evenodd" d="M231.79,439.486c0.736,1.426,1.249,3.074,3.242,3.242
			c-1.347,0.661-3.119,0.896-2.779,3.243c-0.659-1.656-2.253-2.378-3.243-3.706C230.937,442.34,231.864,441.413,231.79,439.486z"/>
	</g>
	<path fill-rule="evenodd" clip-rule="evenodd" d="M181.108,375.313c1.808,3.671,1.666,9.292,3.424,13.012
		c3.88,1.256,8.4,1.873,12.669,2.74c-3.713,2.108-10.38,1.263-13.354,4.109c-0.655,4.139-1.454,8.133-2.397,11.985
		c-1.233-3.789-1.86-8.185-2.74-12.327c-3.466-2.126-9.009-2.177-13.354-3.425c1.986-0.959,4.097-0.939,6.164-1.37
		c1.77-0.367,4.533-0.562,5.821-1.369C181.091,386.316,179.232,379.938,181.108,375.313z"/>
	<path fill-rule="evenodd" clip-rule="evenodd" d="M193.092,376.682c0.853,0.517,0.429,2.311,1.027,3.082
		c0.518,0.852,2.311,0.428,3.082,1.027c-2.117,0.508-4.052,1.199-3.767,4.109c-0.711-1.915-1.005-4.246-4.109-3.767
		c0.188-1.068,1.986-0.525,2.74-1.028C192.853,379.411,192.984,378.058,193.092,376.682z"/>
	<path fill-rule="evenodd" clip-rule="evenodd" fill="#FFFFFF" d="M134.539,422.566c0.606,1.334,0.814,3.066,1.027,4.794
		c1.415,0.526,3.009,0.872,4.794,1.026c-0.838,1.104-2.986,0.895-4.451,1.371c-0.469,1.584-1.107,3.001-1.027,5.136
		c-1.073-0.982-0.766-3.343-1.37-4.794c-1.142-0.912-3.401-0.709-4.794-1.37c1.057-0.77,2.999-0.653,4.452-1.026
		C134.057,426.422,134.004,424.2,134.539,422.566z"/>
	<path fill-rule="evenodd" clip-rule="evenodd" fill="#FFFFFF" d="M129.403,432.496c0.66,0.14,0.27,1.328,1.369,1.027
		c-0.138,0.661-1.568,0.03-1.027,1.37c-0.333-0.01-0.266-0.419-0.342-0.685c-0.01-0.334-0.419-0.266-0.686-0.343
		C128.865,433.328,129.794,433.573,129.403,432.496z"/>
	<path fill-rule="evenodd" clip-rule="evenodd" fill="#FFFFFF" d="M157.823,450.303c1.006,0.135,0.295,1.986,2.054,1.369
		c-0.23,0.797-1.796,0.258-1.369,1.713c-1.128-0.014-0.591-1.692-2.055-1.37C156.872,451.405,158.438,451.944,157.823,450.303z"/>
	<path fill-rule="evenodd" clip-rule="evenodd" fill="#FFFFFF" d="M152.687,451.329c0.802,1.709,1.043,3.979,1.37,6.164
		c1.351,1.616,5.296,0.64,6.506,2.397c-2.352,0.158-4.328,0.693-6.164,1.369c-0.67,1.955-1.074,4.176-1.37,6.506
		c-1.197-1.542-0.986-4.492-1.712-6.506c-1.669-1.185-5.232-0.475-6.505-2.055c2.367-0.029,3.987-0.807,6.164-1.027
		C151.922,456.271,152.196,453.692,152.687,451.329z"/>
	<path fill-rule="evenodd" clip-rule="evenodd" d="M143.099,497.214c-3.465,0.403-10.085,1.25-11.642-1.37
		C129.182,486.279,150.517,489.852,143.099,497.214z"/>
	<path fill-rule="evenodd" clip-rule="evenodd" d="M278.012,457.15c-5.09,12.487-14.592,23.531-25.339,31.503
		c2.918,0.705,4.512,0.886,4.11,3.767c-0.488,3.491-7.789,2.396-14.382,2.396c-2.337,0-5.313,0-8.561,0
		c-3.534,0-6.205-0.393-6.505,1.713c-0.396,2.771,3.432,2.396,7.191,2.396c2.746,0,6.952,0,9.245,0
		c6.809,0,13.64-0.713,17.806,1.027c5.163,10.092-14.286,4.873-21.229,6.164c-1.024,1.285-0.525,3.172-2.397,4.108
		c-4.111,2.058-13.597-0.825-18.833,0.343c-1.315,0.282-0.478,2.718-1.712,3.082c-13.952,0.012-32.622-0.008-46.568,0
		c-1.767,0.053-1.242-2.184-2.055-3.082c-6.573,0-12.635,0-20.203,0c-5.811,0-16.499,1.701-17.121-3.082
		c-0.58-4.467,3.635-4.109,8.56-4.109c8.356,0,19.432,0,26.709,0c1.894,0.41,1.195-1.773,2.74-1.712
		c4.995,0.181,6.245,0.013,6.506-1.712c0.436-2.888-2.649-2.379-6.164-2.397c-5.446-0.029-21.383,1.574-22.6-2.054
		c-3.579-10.672,19.862-0.958,20.202-7.191c0.176-3.221-5.881-2.396-9.93-2.396c-8.936,0-16.013,0-24.654,0
		c-4.044,0-8.113,0.674-10.958-1.027c-3.523-9.199,11.345-5.405,18.491-6.164c-0.371-2.176-2.53-3.229-3.767-4.794
		c-10.289-13.015-19.185-32.284-17.806-57.184c1.327-23.968,11.944-41.665,25.682-55.129c14.125-13.845,33.225-22.635,56.841-23.627
		c-1.349,1.308-3.227,1.72-4.793,2.397c-11.041,4.765-20.725,12.188-28.078,21.23c-9.558,11.751-16.969,28.351-15.751,50.335
		c1.687,30.455,22.131,53.297,45.199,62.663c13.849,5.622,31.342,6.999,46.569,2.739C258.08,473.542,269.034,466.361,278.012,457.15
		z M133.169,427.703c-1.453,0.373-3.396,0.257-4.452,1.026c1.394,0.661,3.652,0.458,4.794,1.37c0.604,1.451,0.297,3.812,1.37,4.794
		c-0.08-2.135,0.559-3.552,1.027-5.136c1.465-0.477,3.613-0.268,4.451-1.371c-1.785-0.154-3.379-0.5-4.794-1.026
		c-0.213-1.728-0.421-3.46-1.027-4.794C134.004,424.2,134.057,426.422,133.169,427.703z M128.717,433.866
		c0.266,0.077,0.675,0.009,0.686,0.343c0.076,0.266,0.009,0.675,0.342,0.685c-0.541-1.34,0.889-0.709,1.027-1.37
		c-1.099,0.301-0.709-0.888-1.369-1.027C129.794,433.573,128.865,433.328,128.717,433.866z M156.453,452.015
		c1.464-0.322,0.926,1.356,2.055,1.37c-0.427-1.455,1.139-0.916,1.369-1.713c-1.759,0.617-1.048-1.234-2.054-1.369
		C158.438,451.944,156.872,451.405,156.453,452.015z M154.056,457.493c-0.327-2.185-0.567-4.455-1.37-6.164
		c-0.491,2.363-0.765,4.942-1.712,6.849c-2.176,0.221-3.796,0.998-6.164,1.027c1.273,1.58,4.836,0.87,6.505,2.055
		c0.727,2.014,0.515,4.964,1.712,6.506c0.295-2.33,0.7-4.551,1.37-6.506c1.835-0.676,3.812-1.211,6.164-1.369"/>
</g>
</svg>
